<svg width="200" height="200" xmlns="http://www.w3.org/2000/svg" viewBox="0 0 200 200">
    <!-- Центральный ромб -->
    <polygon points="100,60 140,100 100,140 60,100" fill="#b80000" />

    <!-- Большие кресты -->
    <rect x="97" y="54" width="6" height="20" fill="#b80000" />
    <rect x="90" y="67" width="20" height="6" fill="#b80000" />

    <rect x="97" y="130" width="6" height="20" fill="#b80000" />
    <rect x="90" y="143" width="20" height="6" fill="#b80000" />

    <rect x="54" y="97" width="20" height="6" fill="#b80000" />
    <rect x="67" y="90" width="6" height="20" fill="#b80000" />

    <rect x="130" y="97" width="20" height="6" fill="#b80000" />
    <rect x="143" y="90" width="6" height="20" fill="#b80000" />

    <polygon points="50,40 70,60 50,80 30,60" fill="#b80000" />
    <polygon points="150,40 170,60 150,80 130,60" fill="#b80000" />
    <polygon points="50,120 70,140 50,160 30,140" fill="#b80000" />
    <polygon points="150,120 170,140 150,160 130,140" fill="#b80000" />

    <rect x="97" y="34" width="6" height="12" fill="#b80000" />
    <rect x="90" y="40" width="20" height="6" fill="#b80000" />

    <rect x="97" y="154" width="6" height="12" fill="#b80000" />
    <rect x="90" y="160" width="20" height="6" fill="#b80000" />

    <rect x="34" y="97" width="12" height="6" fill="#b80000" />
    <rect x="40" y="90" width="6" height="20" fill="#b80000" />

    <rect x="154" y="97" width="12" height="6" fill="#b80000" />
    <rect x="160" y="90" width="6" height="20" fill="#b80000" />
</svg>
